REM DIRINDEX 1\6,1\2\7,1\2\8,1\2\9,1\3\10,1\3\11,1\4\12,1\4\13,1\4\14,1\5\15,1\5\16,1\5\17
REM DIRNAME cjc041,folder01,folder02,folder03,folder04,folder05,folder06,folder07,folder08,folder09,folder10,folder11,folder12,folder13,folder14,folder15,folder16
TITLE ""
FILE "3Q_k_073-084.mp3" MP3
  TRACK 01 AUDIO
    TITLE "15:cjc041_1492"
    INDEX 01 00:00:00
  TRACK 02 AUDIO
    TITLE "0:"
    INDEX 01 00:01:24
  TRACK 03 AUDIO
    TITLE "16:cjc041_1493"
    INDEX 01 00:02:06
  TRACK 04 AUDIO
    TITLE "0:"
    INDEX 01 00:04:66
  TRACK 05 AUDIO
    TITLE "17:cjc041_1494"
    INDEX 01 00:05:42
  TRACK 06 AUDIO
    TITLE "17:cjc041_1495"
    INDEX 01 00:09:36
  TRACK 07 AUDIO
    TITLE "0:"
    INDEX 01 00:10:45
  TRACK 08 AUDIO
    TITLE "15:cjc041_1496"
    INDEX 01 00:11:39
  TRACK 09 AUDIO
    TITLE "0:"
    INDEX 01 00:13:06
  TRACK 10 AUDIO
    TITLE "16:cjc041_1497"
    INDEX 01 00:13:61
  TRACK 11 AUDIO
    TITLE "0:"
    INDEX 01 00:15:50
  TRACK 12 AUDIO
    TITLE "17:cjc041_1498"
    INDEX 01 00:16:34
  TRACK 13 AUDIO
    TITLE "17:cjc041_1499"
    INDEX 01 00:19:09
  TRACK 14 AUDIO
    TITLE "0:"
    INDEX 01 00:21:47
  TRACK 15 AUDIO
    TITLE "15:cjc041_1500"
    INDEX 01 00:22:34
  TRACK 16 AUDIO
    TITLE "0:"
    INDEX 01 00:24:12
  TRACK 17 AUDIO
    TITLE "16:cjc041_1501"
    INDEX 01 00:24:72
  TRACK 18 AUDIO
    TITLE "0:"
    INDEX 01 00:27:32
  TRACK 19 AUDIO
    TITLE "17:cjc041_1502"
    INDEX 01 00:28:15
  TRACK 20 AUDIO
    TITLE "17:cjc041_1503"
    INDEX 01 00:30:48
  TRACK 21 AUDIO
    TITLE "0:"
    INDEX 01 00:33:30
  TRACK 22 AUDIO
    TITLE "15:cjc041_1504"
    INDEX 01 00:34:16
  TRACK 23 AUDIO
    TITLE "0:"
    INDEX 01 00:36:05
  TRACK 24 AUDIO
    TITLE "16:cjc041_1505"
    INDEX 01 00:36:62
  TRACK 25 AUDIO
    TITLE "0:"
    INDEX 01 00:38:41
  TRACK 26 AUDIO
    TITLE "17:cjc041_1506"
    INDEX 01 00:39:23
  TRACK 27 AUDIO
    TITLE "17:cjc041_1507"
    INDEX 01 00:43:11
  TRACK 28 AUDIO
    TITLE "0:"
    INDEX 01 00:44:73
  TRACK 29 AUDIO
    TITLE "15:cjc041_1508"
    INDEX 01 00:45:53
  TRACK 30 AUDIO
    TITLE "0:"
    INDEX 01 00:47:38
  TRACK 31 AUDIO
    TITLE "16:cjc041_1509"
    INDEX 01 00:48:20
  TRACK 32 AUDIO
    TITLE "0:"
    INDEX 01 00:50:15
  TRACK 33 AUDIO
    TITLE "17:cjc041_1510"
    INDEX 01 00:50:64
  TRACK 34 AUDIO
    TITLE "17:cjc041_1511"
    INDEX 01 00:54:72
  TRACK 35 AUDIO
    TITLE "0:"
    INDEX 01 00:56:51
  TRACK 36 AUDIO
    TITLE "15:cjc041_1512"
    INDEX 01 00:57:33
  TRACK 37 AUDIO
    TITLE "0:"
    INDEX 01 00:59:28
  TRACK 38 AUDIO
    TITLE "16:cjc041_1513"
    INDEX 01 01:00:15
  TRACK 39 AUDIO
    TITLE "0:"
    INDEX 01 01:02:26
  TRACK 40 AUDIO
    TITLE "17:cjc041_1514"
    INDEX 01 01:03:10
  TRACK 41 AUDIO
    TITLE "17:cjc041_1515"
    INDEX 01 01:06:53
  TRACK 42 AUDIO
    TITLE "0:"
    INDEX 01 01:08:54
  TRACK 43 AUDIO
    TITLE "15:cjc041_1516"
    INDEX 01 01:09:26
  TRACK 44 AUDIO
    TITLE "0:"
    INDEX 01 01:10:55
  TRACK 45 AUDIO
    TITLE "16:cjc041_1517"
    INDEX 01 01:11:41
  TRACK 46 AUDIO
    TITLE "0:"
    INDEX 01 01:13:20
  TRACK 47 AUDIO
    TITLE "17:cjc041_1518"
    INDEX 01 01:14:02
  TRACK 48 AUDIO
    TITLE "17:cjc041_1519"
    INDEX 01 01:15:27
  TRACK 49 AUDIO
    TITLE "0:"
    INDEX 01 01:17:06
  TRACK 50 AUDIO
    TITLE "15:cjc041_1520"
    INDEX 01 01:17:61
  TRACK 51 AUDIO
    TITLE "0:"
    INDEX 01 01:19:27
  TRACK 52 AUDIO
    TITLE "16:cjc041_1521"
    INDEX 01 01:20:08
  TRACK 53 AUDIO
    TITLE "0:"
    INDEX 01 01:21:74
  TRACK 54 AUDIO
    TITLE "17:cjc041_1522"
    INDEX 01 01:22:56
  TRACK 55 AUDIO
    TITLE "17:cjc041_1523"
    INDEX 01 01:25:72
  TRACK 56 AUDIO
    TITLE "0:"
    INDEX 01 01:27:57
  TRACK 57 AUDIO
    TITLE "15:cjc041_1524"
    INDEX 01 01:28:33
  TRACK 58 AUDIO
    TITLE "0:"
    INDEX 01 01:29:66
  TRACK 59 AUDIO
    TITLE "16:cjc041_1525"
    INDEX 01 01:30:48
  TRACK 60 AUDIO
    TITLE "0:"
    INDEX 01 01:32:21
  TRACK 61 AUDIO
    TITLE "17:cjc041_1526"
    INDEX 01 01:33:05
  TRACK 62 AUDIO
    TITLE "17:cjc041_1527"
    INDEX 01 01:35:73
  TRACK 63 AUDIO
    TITLE "0:"
    INDEX 01 01:37:07
  TRACK 64 AUDIO
    TITLE "15:cjc041_1528"
    INDEX 01 01:37:68
  TRACK 65 AUDIO
    TITLE "0:"
    INDEX 01 01:39:47
  TRACK 66 AUDIO
    TITLE "16:cjc041_1529"
    INDEX 01 01:40:36
  TRACK 67 AUDIO
    TITLE "0:"
    INDEX 01 01:42:41
  TRACK 68 AUDIO
    TITLE "17:cjc041_1530"
    INDEX 01 01:43:11
  TRACK 69 AUDIO
    TITLE "17:cjc041_1531"
    INDEX 01 01:46:41
  TRACK 70 AUDIO
    TITLE "0:"
    INDEX 01 01:48:18
  TRACK 71 AUDIO
    TITLE "15:cjc041_1532"
    INDEX 01 01:48:67
  TRACK 72 AUDIO
    TITLE "0:"
    INDEX 01 01:51:09
  TRACK 73 AUDIO
    TITLE "16:cjc041_1533"
    INDEX 01 01:51:64
  TRACK 74 AUDIO
    TITLE "0:"
    INDEX 01 01:54:03
  TRACK 75 AUDIO
    TITLE "17:cjc041_1534"
    INDEX 01 01:54:52
  TRACK 76 AUDIO
    TITLE "17:cjc041_1535"
    INDEX 01 01:57:21
  TRACK 77 AUDIO
    TITLE "0:"
    INDEX 01 01:59:28
  TRACK 78 AUDIO
    TITLE "15:cjc041_1536"
    INDEX 01 02:00:08
  TRACK 79 AUDIO
    TITLE "0:"
    INDEX 01 02:01:39
  TRACK 80 AUDIO
    TITLE "16:cjc041_1537"
    INDEX 01 02:02:22
  TRACK 81 AUDIO
    TITLE "0:"
    INDEX 01 02:06:06
  TRACK 82 AUDIO
    TITLE "17:cjc041_1538"
    INDEX 01 02:06:59
  TRACK 83 AUDIO
    TITLE "17:cjc041_1539"
    INDEX 01 02:10:22
  TRACK 84 AUDIO
    TITLE "0:"
    INDEX 01 02:11:66
